<svg width="20" height="19" viewBox="0 0 20 19" fill="none" xmlns="http://www.w3.org/2000/svg">
<path d="M10 13.5C9.82918 13.5 9.66585 13.423 9.54835 13.2873L5.17335 8.24566C4.79418 7.80932 5.07585 7.08332 5.62501 7.08332H7.91668V1.81249C7.91668 1.18091 8.38418 0.666656 8.95835 0.666656H11.0417C11.6158 0.666656 12.0833 1.18091 12.0833 1.81249V7.08332H14.375C14.9242 7.08332 15.2058 7.80932 14.8267 8.24566L10.4517 13.2873C10.3342 13.423 10.1708 13.5 10 13.5V13.5Z" fill="white"/>
<path d="M18.5417 19H1.45833C0.654167 19 0 18.2804 0 17.3958V16.9375C0 16.0529 0.654167 15.3333 1.45833 15.3333H18.5417C19.3458 15.3333 20 16.0529 20 16.9375V17.3958C20 18.2804 19.3458 19 18.5417 19Z" fill="white"/>
</svg>
